<svg xmlns="http://www.w3.org/2000/svg" viewBox="0 0 48 48" fill="none">
  <defs>
    <linearGradient id="g" x1="8" y1="8" x2="40" y2="40" gradientUnits="userSpaceOnUse">
      <stop stop-color="#f2c96a"/>
      <stop offset="1" stop-color="#cc9628"/>
    </linearGradient>
    <linearGradient id="bg" x1="0" y1="0" x2="48" y2="48" gradientUnits="userSpaceOnUse">
      <stop stop-color="#1d3a66"/>
      <stop offset="1" stop-color="#162e54"/>
    </linearGradient>
  </defs>
  <rect width="48" height="48" rx="12" fill="url(#bg)"/>
  <rect width="48" height="48" rx="12" fill="url(#g)" fill-opacity="0.08"/>
  <path d="M10 22.5 13.5 15l3 3.5L24 11l7.5 7.5 3-3.5L38 22.5 35.5 24H12.5L10 22.5Z" fill="url(#g)"/>
  <circle cx="13.5" cy="15" r="1.5" fill="#f2c96a"/>
  <circle cx="24" cy="11" r="1.5" fill="#f2c96a"/>
  <circle cx="34.5" cy="15" r="1.5" fill="#f2c96a"/>
  <path d="M14 27.5c0-1 1.2-1.8 2.5-1.8h5v14h-5c-1.3 0-2.5-.8-2.5-1.8V27.5Z" fill="url(#g)" fill-opacity="0.85"/>
  <path d="M34 27.5c0-1-1.2-1.8-2.5-1.8h-5v14h5c1.3 0 2.5-.8 2.5-1.8V27.5Z" fill="url(#g)" fill-opacity="0.85"/>
  <path d="M24 25.7v14" stroke="#f2c96a" stroke-width="1.2" stroke-linecap="round"/>
</svg>
